
<svg version="1.1" id="Layer_1" xmlns="http://www.w3.org/2000/svg" xmlns:xlink="http://www.w3.org/1999/xlink" x="0px" y="0px"
	 width="870.7px" height="62.8px" viewBox="0 0 870.7 62.8" style="enable-background:new 0 0 870.7 62.8;" xml:space="preserve">
<style type="text/css">
	.st0{fill:#FDCE08;}
	.st1{fill:#FFF;}
</style>
<g>
	<path class="st0" d="M853.6,0c9.4,0,17.1,7.7,17.1,17.1l0,11.4c0,9.4-7.7,17.1-17.1,17.1l-11.8,0l-19.6,17.1l0-17.1h-2.9
		c-9.4,0-17.1-7.7-17.1-17.1l0-11.4c0-9.4,7.7-17.1,17.1-17.1L853.6,0 M859.6,15.2h-6.4c0,8.9-7.2,16.1-16.1,16.1
		c-8.9,0-16.1-7.2-16.1-16.1h-6.4c0,12.5,10.1,22.6,22.6,22.6C849.5,37.8,859.6,27.7,859.6,15.2z"/>
	<g>
		<g>
			<path class="st1" d="M9.2,20.9h7.3c2,0,2.5,0.1,3.4,0.5C21.2,22,22,23.5,22,25c0,1.5-0.8,3-2.1,3.6c-1,0.5-1.4,0.5-3.4,0.5H9.2
				v10.1c0,2.2-0.1,2.8-0.6,3.9c-0.7,1.3-2.4,2.3-4,2.3c-1.7,0-3.3-1-4-2.3C0.1,42.1,0,41.6,0,39.3v-28c0-2.8,0.2-3.6,1-4.6
				c1.1-1.4,2.5-2.1,4.6-2.1h1.1h11.4c2,0,2.5,0.1,3.4,0.5c1.2,0.6,2.1,2.1,2.1,3.6c0,1.5-0.8,3-2.1,3.6c-1,0.5-1.4,0.5-3.4,0.5H9.2
				V20.9z"/>
			<path class="st1" d="M28.1,10.1c0-2.2,0.1-2.8,0.6-3.9c0.7-1.3,2.4-2.3,4-2.3c1.6,0,3.3,1,4,2.3c0.5,1.1,0.6,1.6,0.6,3.9v29.2
				c0,2.2-0.1,2.8-0.6,3.9c-0.7,1.3-2.4,2.3-4,2.3c-1.7,0-3.3-1-4-2.3c-0.5-1.1-0.6-1.6-0.6-3.9V10.1z"/>
			<path class="st1" d="M52.9,39.3c0,2.2-0.1,2.8-0.6,3.9c-0.7,1.3-2.4,2.3-4,2.3c-1.7,0-3.3-1-4-2.3c-0.5-1.1-0.6-1.6-0.6-3.9V8.7
				c0-2.8,1.8-4.7,4.6-4.7c1.6,0,2.6,0.5,3.8,2.1l17.8,22.4V10.1c0-2.2,0.1-2.8,0.6-3.9c0.7-1.3,2.4-2.3,4-2.3c1.6,0,3.3,1,4,2.3
				c0.5,1.1,0.6,1.6,0.6,3.9v30c0,2-0.3,2.9-1.3,3.9c-0.8,1-1.9,1.4-3.1,1.4c-1.1,0-2.1-0.4-2.9-1.1c-0.4-0.3-0.4-0.3-1.9-2.2
				l-17-21.7V39.3z"/>
			<path class="st1" d="M92.6,37.2l-1,3.5c-1,3.5-2.3,4.9-4.7,4.9c-2.5,0-4.7-2.1-4.7-4.5c0-1,0.1-1.3,0.8-3.2l10.5-29
				c1.2-3.3,3.6-5.1,6.8-5.1c3.2,0,5.6,1.9,6.8,5.1l10.5,29c0.7,1.9,0.8,2.2,0.8,3.2c0,2.4-2.1,4.5-4.7,4.5c-2.4,0-3.7-1.3-4.7-4.9
				l-1-3.5H92.6z M100.4,13.6l-4.9,15.3h9.8L100.4,13.6z"/>
			<path class="st1" d="M131.4,39.3c0,2.2-0.1,2.8-0.6,3.9c-0.7,1.3-2.4,2.3-4,2.3c-1.7,0-3.3-1-4-2.3c-0.5-1.1-0.6-1.6-0.6-3.9V8.7
				c0-2.8,1.8-4.7,4.6-4.7c1.6,0,2.6,0.5,3.8,2.1l17.8,22.4V10.1c0-2.2,0.1-2.8,0.6-3.9c0.7-1.3,2.4-2.3,4-2.3c1.6,0,3.3,1,4,2.3
				c0.5,1.1,0.6,1.6,0.6,3.9v30c0,2-0.3,2.9-1.3,3.9c-0.8,1-1.9,1.4-3.1,1.4c-1.1,0-2.1-0.4-2.9-1.1c-0.4-0.3-0.4-0.3-1.9-2.2
				l-17-21.7V39.3z"/>
			<path class="st1" d="M194.1,10.1c0,2.4-1.6,4.1-3.7,4.1c-0.9,0-1.5-0.2-3.4-1c-1.9-0.8-3.1-1-4.8-1c-6.3,0-10.1,4.7-10.1,12.6
				c0,7.8,3.8,12.4,10.2,12.4c2.3,0,2.3,0,6.4-1.9c0.7-0.3,1.4-0.5,2.1-0.5c2.1,0,3.7,1.9,3.7,4.2c0,3.9-5.1,6.8-12.2,6.8
				c-12.1,0-20.1-8.5-20.1-21.3c0-12.4,8.2-21,20-21C189.3,3.6,194.1,6.2,194.1,10.1z"/>
			<path class="st1" d="M199,10.1c0-2.2,0.1-2.8,0.6-3.9c0.7-1.3,2.4-2.3,4-2.3c1.6,0,3.3,1,4,2.3c0.5,1.1,0.6,1.6,0.6,3.9v29.2
				c0,2.2-0.1,2.8-0.6,3.9c-0.7,1.3-2.4,2.3-4,2.3c-1.7,0-3.3-1-4-2.3c-0.5-1.1-0.6-1.6-0.6-3.9V10.1z"/>
			<path class="st1" d="M221.8,37.2l-1,3.5c-1,3.5-2.3,4.9-4.7,4.9c-2.5,0-4.7-2.1-4.7-4.5c0-1,0.1-1.3,0.8-3.2l10.5-29
				c1.2-3.3,3.6-5.1,6.8-5.1s5.6,1.9,6.8,5.1l10.5,29c0.7,1.9,0.8,2.2,0.8,3.2c0,2.4-2.1,4.5-4.7,4.5c-2.4,0-3.7-1.3-4.7-4.9l-1-3.5
				H221.8z M229.6,13.6l-4.9,15.3h9.8L229.6,13.6z"/>
			<path class="st1" d="M269.4,36.6c2,0,2.5,0.1,3.4,0.5c1.2,0.6,2.1,2.1,2.1,3.6c0,1.5-0.8,3-2.1,3.6c-1,0.5-1.4,0.5-3.4,0.5h-10.9
				c-5,0.2-7.2-1.9-6.9-7V10.1c0-2.2,0.1-2.8,0.6-3.9c0.7-1.3,2.4-2.3,4-2.3c1.6,0,3.3,1,4,2.3c0.5,1.1,0.6,1.6,0.6,3.9v26.4H269.4z
				"/>
			<path class="st0" d="M317.6,9.5c0,2.4-1.8,4.3-4.1,4.3c-0.9,0-0.9,0-3.2-0.8c-1.3-0.5-2.8-0.8-4.1-0.8c-2.7,0-4.6,1.4-4.6,3.3
				c0,0.9,0.5,1.8,1.3,2.3c1.1,0.8,1.1,0.8,5,1.8c8.9,2.4,12.7,6.2,12.7,12.7c0,3.5-1.3,6.9-3.4,9.2c-2.5,2.8-6.8,4.3-11.9,4.3
				c-8,0-13.7-2.8-13.7-6.8c0-2.4,1.8-4.4,4-4.4c1.1,0,1.1,0,5.6,1.7c1.4,0.5,3.1,0.9,4.5,0.9c3.1,0,5.1-1.7,5.1-4.2
				c0-1.3-0.5-2.3-1.6-2.9c-1.1-0.8-2-1.1-6.4-2.4c-4.7-1.4-6.6-2.3-8.3-4c-1.7-1.6-2.6-4.2-2.6-7.3c0-7.5,6.2-12.9,14.9-12.9
				C313,3.6,317.6,6,317.6,9.5z"/>
			<path class="st0" d="M360.1,27.2c0,6-0.8,8.8-3.3,12c-3.3,4.2-8.5,6.7-14.3,6.7c-10,0-17.4-7-17.4-16.3V10.1
				c0-2.2,0.1-2.8,0.6-3.9c0.7-1.3,2.4-2.3,4-2.3c1.6,0,3.3,1,4,2.3c0.5,1.1,0.6,1.6,0.6,3.9v18.1c0,5.4,3.3,9,8.3,9
				c2.6,0,5.1-1.2,6.6-3.1c1.2-1.6,1.7-3.6,1.7-6.9v-17c0-2.2,0.1-2.8,0.6-3.9c0.7-1.3,2.4-2.3,4-2.3c1.6,0,3.3,1,4,2.3
				c0.5,1.1,0.6,1.6,0.6,3.9V27.2z"/>
			<path class="st0" d="M375.4,39.3c0,2.2-0.1,2.8-0.6,3.9c-0.7,1.3-2.4,2.3-4,2.3c-1.7,0-3.3-1-4-2.3c-0.5-1.1-0.6-1.6-0.6-3.9v-28
				c0-2.8,0.2-3.6,1-4.6c1.1-1.4,2.5-2.1,4.6-2.1h1.1h8.3c4.6,0,7.8,1,10.3,3.3c2.7,2.5,4.2,6.3,4.2,10.3c0,3.4-1.1,6.8-3.1,9.2
				c-2.4,2.9-5.7,4.3-10.2,4.3h-7V39.3z M380,23.6c3.7,0,6.2-2.2,6.2-5.4c0-3.3-2.2-5.6-5.7-5.6h-5.1v11H380z"/>
			<path class="st0" d="M408.4,39.3c0,2.2-0.1,2.8-0.6,3.9c-0.7,1.3-2.4,2.3-4,2.3c-1.7,0-3.3-1-4-2.3c-0.5-1.1-0.6-1.6-0.6-3.9v-28
				c0-2.8,0.2-3.6,1-4.6c1.1-1.4,2.5-2.1,4.6-2.1h1.1h8.3c4.6,0,7.8,1,10.3,3.3c2.7,2.5,4.2,6.3,4.2,10.3c0,3.4-1.1,6.8-3.1,9.2
				c-2.4,2.9-5.7,4.3-10.2,4.3h-7V39.3z M413.1,23.6c3.7,0,6.2-2.2,6.2-5.4c0-3.3-2.2-5.6-5.7-5.6h-5.1v11H413.1z"/>
			<path class="st0" d="M470.9,24.7c0,12.6-8,21.2-19.7,21.2c-12.1,0-20-8.5-20-21.6c0-6.5,2.4-12.1,6.6-15.8c3.7-3.3,8.3-5,13.3-5
				C462.8,3.6,470.9,12.1,470.9,24.7z M440.9,24.3c0,8.1,3.9,13.3,10.1,13.3c6,0,10-5.1,10-12.9c0-7.8-3.9-12.9-10-12.9
				C445.1,11.8,440.9,16.9,440.9,24.3z"/>
			<path class="st0" d="M484.6,39.3c0,2.2-0.1,2.8-0.6,3.9c-0.7,1.3-2.4,2.3-4,2.3c-1.7,0-3.3-1-4-2.3c-0.5-1.1-0.6-1.6-0.6-3.9v-28
				c0-2.8,0.2-3.6,1-4.6c1.1-1.4,2.5-2.1,4.6-2.1h1.1h8.2c8.5,0,14.1,4.9,14.1,12.5c0,3.3-1.1,6.2-3.1,8.2c-1.6,1.5-3,2.2-6.3,2.9
				l7.8,8.7c1.8,1.9,2.2,2.8,2.2,4.2c0,2.5-2.1,4.5-4.6,4.5c-1.6,0-2.7-0.7-4.4-2.9l-11.4-14.1V39.3z M490.3,22c2.9,0,5-1.9,5-4.5
				c0-2.8-2.2-4.9-5.1-4.9h-5.6V22H490.3z"/>
			<path class="st0" d="M525.7,39.3c0,2.2-0.1,2.8-0.6,3.9c-0.7,1.3-2.4,2.3-4,2.3c-1.7,0-3.3-1-4-2.3c-0.5-1.1-0.6-1.6-0.6-3.9
				V12.8h-4.6c-2,0-2.5-0.1-3.4-0.5c-1.2-0.6-2.1-2.1-2.1-3.6c0-1.4,0.8-3,2.1-3.6c1-0.5,1.4-0.5,3.4-0.5h18.2c2,0,2.5,0.1,3.4,0.5
				c1.2,0.6,2.1,2.1,2.1,3.6c0,1.5-0.8,3-2.1,3.6c-1,0.5-1.4,0.5-3.4,0.5h-4.4V39.3z"/>
			<path class="st1" d="M579.8,9.5c0,2.4-1.8,4.3-4.1,4.3c-0.9,0-0.9,0-3.2-0.8c-1.3-0.5-2.8-0.8-4.1-0.8c-2.7,0-4.6,1.4-4.6,3.3
				c0,0.9,0.5,1.8,1.3,2.3c1.1,0.8,1.1,0.8,5,1.8c8.9,2.4,12.7,6.2,12.7,12.7c0,3.5-1.3,6.9-3.4,9.2c-2.5,2.8-6.8,4.3-11.9,4.3
				c-8,0-13.7-2.8-13.7-6.8c0-2.4,1.8-4.4,4-4.4c1.1,0,1.1,0,5.6,1.7c1.4,0.5,3.1,0.9,4.5,0.9c3.1,0,5.1-1.7,5.1-4.2
				c0-1.3-0.5-2.3-1.6-2.9c-1.1-0.8-2-1.1-6.4-2.4c-4.7-1.4-6.6-2.3-8.3-4c-1.7-1.6-2.6-4.2-2.6-7.3c0-7.5,6.2-12.9,14.9-12.9
				C575.2,3.6,579.8,6,579.8,9.5z"/>
			<path class="st1" d="M604.8,39.3c0,2.2-0.1,2.8-0.6,3.9c-0.7,1.3-2.4,2.3-4,2.3c-1.7,0-3.3-1-4-2.3c-0.5-1.1-0.6-1.6-0.6-3.9
				V25.8l-9.7-13.3c-1.3-1.8-1.8-2.8-1.8-4c0-2.5,2.1-4.5,4.6-4.5c1.9,0,2.8,0.7,4.6,3.3l6.9,9.8l7.1-9.8c1.8-2.5,2.8-3.2,4.6-3.2
				c2.5,0,4.7,2.1,4.7,4.5c0,1.3-0.4,2.2-1.9,4.2l-10,13.2V39.3z"/>
			<path class="st1" d="M645.2,9.5c0,2.4-1.8,4.3-4.1,4.3c-0.9,0-0.9,0-3.2-0.8c-1.3-0.5-2.8-0.8-4.1-0.8c-2.7,0-4.6,1.4-4.6,3.3
				c0,0.9,0.5,1.8,1.3,2.3c1.1,0.8,1.1,0.8,5,1.8c8.9,2.4,12.7,6.2,12.7,12.7c0,3.5-1.3,6.9-3.4,9.2c-2.5,2.8-6.8,4.3-11.9,4.3
				c-8,0-13.7-2.8-13.7-6.8c0-2.4,1.8-4.4,4-4.4c1.1,0,1.1,0,5.6,1.7c1.4,0.5,3.1,0.9,4.5,0.9c3.1,0,5.1-1.7,5.1-4.2
				c0-1.3-0.5-2.3-1.6-2.9c-1.1-0.8-2-1.1-6.4-2.4c-4.7-1.4-6.6-2.3-8.3-4c-1.7-1.6-2.6-4.2-2.6-7.3c0-7.5,6.2-12.9,14.9-12.9
				C640.6,3.6,645.2,6,645.2,9.5z"/>
			<path class="st1" d="M668.3,39.3c0,2.2-0.1,2.8-0.6,3.9c-0.7,1.3-2.4,2.3-4,2.3c-1.7,0-3.3-1-4-2.3c-0.5-1.1-0.6-1.6-0.6-3.9
				V12.8h-4.6c-2,0-2.5-0.1-3.4-0.5c-1.2-0.6-2.1-2.1-2.1-3.6c0-1.4,0.8-3,2.1-3.6c1-0.5,1.4-0.5,3.4-0.5h18.2c2,0,2.5,0.1,3.4,0.5
				c1.2,0.6,2.1,2.1,2.1,3.6c0,1.5-0.8,3-2.1,3.6c-1,0.5-1.4,0.5-3.4,0.5h-4.4V39.3z"/>
			<path class="st1" d="M690.6,20.5h7.7c2,0,2.5,0.1,3.4,0.5c1.2,0.6,2.1,2.1,2.1,3.6c0,1.5-0.8,3-2.1,3.6c-1,0.5-1.4,0.5-3.4,0.5
				h-7.7v7.8h8.6c2,0,2.5,0.1,3.4,0.5c1.2,0.6,2.1,2.1,2.1,3.6c0,1.5-0.8,3-2.1,3.6c-1,0.5-1.4,0.5-3.4,0.5H688
				c-4.8,0.2-6.9-1.9-6.7-6.7V11.3c0-2.8,0.2-3.6,1-4.6c1.1-1.4,2.5-2.1,4.6-2.1h1.1h11.2c2,0,2.5,0.1,3.4,0.5
				c1.2,0.6,2.1,2.1,2.1,3.6c0,1.5-0.8,3-2.1,3.6c-1,0.5-1.4,0.5-3.4,0.5h-8.6V20.5z"/>
			<path class="st1" d="M716.8,40c-0.4,2.2-0.5,2.8-1.2,3.7c-0.7,1-2.2,1.7-3.6,1.7c-2.6,0-4.5-2-4.5-4.7c0-0.5,0.1-1.3,0.2-2.2
				l4.8-29.3c0.5-3.4,2.7-5.3,6.2-5.3c2.7,0,5,1.5,5.7,3.9l6.8,20.8l6.2-19.9c1-3,3.3-4.8,6.1-4.8c3,0,5.6,2.1,6.1,4.8l5.1,29.6
				c0.3,1.4,0.3,1.7,0.3,2.4c0,2.7-2,4.6-4.6,4.6c-1.4,0-2.9-0.7-3.6-1.7c-0.7-1-0.8-1.4-1.3-3.7l-3.1-19L736.8,40
				c-0.8,2.8-1.1,3.5-1.9,4.2c-0.8,0.8-2.1,1.3-3.5,1.3c-2.7,0-4.2-1.3-5.1-4.4l-6.5-20L716.8,40z"/>
			<path class="st1" d="M784.3,9.5c0,2.4-1.8,4.3-4.1,4.3c-0.9,0-0.9,0-3.2-0.8c-1.3-0.5-2.8-0.8-4.1-0.8c-2.7,0-4.6,1.4-4.6,3.3
				c0,0.9,0.5,1.8,1.3,2.3c1.1,0.8,1.1,0.8,5,1.8c8.9,2.4,12.7,6.2,12.7,12.7c0,3.5-1.3,6.9-3.4,9.2c-2.5,2.8-6.8,4.3-11.9,4.3
				c-8,0-13.7-2.8-13.7-6.8c0-2.4,1.8-4.4,4-4.4c1.1,0,1.1,0,5.6,1.7c1.4,0.5,3.1,0.9,4.5,0.9c3.1,0,5.1-1.7,5.1-4.2
				c0-1.3-0.5-2.3-1.6-2.9c-1.1-0.8-2-1.1-6.4-2.4c-4.7-1.4-6.6-2.3-8.3-4c-1.7-1.6-2.6-4.2-2.6-7.3c0-7.5,6.2-12.9,14.9-12.9
				C779.7,3.6,784.3,6,784.3,9.5z"/>
		</g>
	</g>
</g>
</svg>
