<svg version="1.1" id="Layer_1" xmlns="http://www.w3.org/2000/svg" xmlns:xlink="http://www.w3.org/1999/xlink" x="0px" y="0px"
	 width="450.7px" height="422.4px" viewBox="0 0 450.7 422.4" style="enable-background:new 0 0 450.7 422.4;" xml:space="preserve"
	>
<path class="st0" d="M325.1,0.4H125.6C56.8,0.4,0.4,56.8,0.4,125.6v51.7c0,68.9,56.3,125.2,125.2,125.2h5.5v119.5l126.8-119.5h67.2
	c68.9,0,125.2-56.3,125.2-125.2v-51.7C450.3,56.8,394,0.4,325.1,0.4z M225.4,250.5c-82.6,0-149.8-67.2-149.8-149.8h41.7
	c0,59.6,48.5,108.1,108.1,108.1c59.6,0,108.1-48.5,108.1-108.1h41.7C375.2,183.3,308,250.5,225.4,250.5z"/>
</svg>
